<?xml version="1.0" encoding="utf-8" standalone="no"?>
<!DOCTYPE svg PUBLIC "-//W3C//DTD SVG 1.1//EN"
  "http://www.w3.org/Graphics/SVG/1.1/DTD/svg11.dtd">
<svg xmlns:xlink="http://www.w3.org/1999/xlink" width="518.740157pt" height="181.417323pt" viewBox="0 0 518.740157 181.417323" xmlns="http://www.w3.org/2000/svg" version="1.1">
 <metadata>
  <rdf:RDF xmlns:dc="http://purl.org/dc/elements/1.1/" xmlns:cc="http://creativecommons.org/ns#" xmlns:rdf="http://www.w3.org/1999/02/22-rdf-syntax-ns#">
   <cc:Work>
    <dc:type rdf:resource="http://purl.org/dc/dcmitype/StillImage"/>
    <dc:date>2026-09-23T16:31:53.945142</dc:date>
    <dc:format>image/svg+xml</dc:format>
    <dc:creator>
     <cc:Agent>
      <dc:title>Matplotlib v3.11.1, https://matplotlib.org/</dc:title>
     </cc:Agent>
    </dc:creator>
   </cc:Work>
  </rdf:RDF>
 </metadata>
 <defs>
  <style type="text/css">*{stroke-linejoin: round; stroke-linecap: butt}</style>
 </defs>
 <g id="figure_1">
  <g id="patch_1">
   <path d="M 0 181.417323 
L 518.740157 181.417323 
L 518.740157 0 
L 0 0 
z
" style="fill: #ffffff"/>
  </g>
  <g id="axes_1">
   <g id="patch_2">
    <path d="M 36.850394 150.23622 
L 235.275591 150.23622 
L 235.275591 22.677165 
L 36.850394 22.677165 
z
" style="fill: #ffffff"/>
   </g>
   <g id="patch_3">
    <path d="M 47.404925 150.23622 
L 142.395711 150.23622 
L 142.395711 22.677165 
L 47.404925 22.677165 
z
" clip-path="url(#p22bb1bf92a)" style="fill: #c6ccdc; opacity: 0.38"/>
   </g>
   <g id="matplotlib.axis_1">
    <g id="xtick_1">
     <g id="line2d_1">
      <defs>
       <path id="m5e2c1c748d" d="M 0 0 
L 0 -2.4 
" style="stroke: #1b1b1b; stroke-width: 0.6"/>
      </defs>
      <g>
       <use xlink:href="#m5e2c1c748d" x="47.404925" y="150.23622" style="fill: #1b1b1b; stroke: #1b1b1b; stroke-width: 0.6"/>
      </g>
     </g>
     <g id="text_1">
      <text style="font-size: 6.5px; font-family: 'Arial'; text-anchor: middle; fill: #1b1b1b" x="47.404925" y="158.468398" transform="rotate(-0 47.404925 158.468398)">15</text>
     </g>
    </g>
    <g id="xtick_2">
     <g id="line2d_2">
      <g>
       <use xlink:href="#m5e2c1c748d" x="79.068521" y="150.23622" style="fill: #1b1b1b; stroke: #1b1b1b; stroke-width: 0.6"/>
      </g>
     </g>
     <g id="text_2">
      <text style="font-size: 6.5px; font-family: 'Arial'; text-anchor: middle; fill: #1b1b1b" x="79.068521" y="158.468398" transform="rotate(-0 79.068521 158.468398)">30</text>
     </g>
    </g>
    <g id="xtick_3">
     <g id="line2d_3">
      <g>
       <use xlink:href="#m5e2c1c748d" x="110.732116" y="150.23622" style="fill: #1b1b1b; stroke: #1b1b1b; stroke-width: 0.6"/>
      </g>
     </g>
     <g id="text_3">
      <text style="font-size: 6.5px; font-family: 'Arial'; text-anchor: middle; fill: #1b1b1b" x="110.732116" y="158.468398" transform="rotate(-0 110.732116 158.468398)">45</text>
     </g>
    </g>
    <g id="xtick_4">
     <g id="line2d_4">
      <g>
       <use xlink:href="#m5e2c1c748d" x="142.395711" y="150.23622" style="fill: #1b1b1b; stroke: #1b1b1b; stroke-width: 0.6"/>
      </g>
     </g>
     <g id="text_4">
      <text style="font-size: 6.5px; font-family: 'Arial'; text-anchor: middle; fill: #1b1b1b" x="142.395711" y="158.468398" transform="rotate(-0 142.395711 158.468398)">60</text>
     </g>
    </g>
    <g id="xtick_5">
     <g id="line2d_5">
      <g>
       <use xlink:href="#m5e2c1c748d" x="174.059306" y="150.23622" style="fill: #1b1b1b; stroke: #1b1b1b; stroke-width: 0.6"/>
      </g>
     </g>
     <g id="text_5">
      <text style="font-size: 6.5px; font-family: 'Arial'; text-anchor: middle; fill: #1b1b1b" x="174.059306" y="158.468398" transform="rotate(-0 174.059306 158.468398)">75</text>
     </g>
    </g>
    <g id="xtick_6">
     <g id="line2d_6">
      <g>
       <use xlink:href="#m5e2c1c748d" x="205.722902" y="150.23622" style="fill: #1b1b1b; stroke: #1b1b1b; stroke-width: 0.6"/>
      </g>
     </g>
     <g id="text_6">
      <text style="font-size: 6.5px; font-family: 'Arial'; text-anchor: middle; fill: #1b1b1b" x="205.722902" y="158.468398" transform="rotate(-0 205.722902 158.468398)">90</text>
     </g>
    </g>
    <g id="text_7">
     <text style="font-size: 7px; font-family: 'Arial'; text-anchor: middle; fill: #1b1b1b" x="136.062992" y="166.93251" transform="rotate(-0 136.062992 166.93251)">hold time at 120 °C  (min)</text>
    </g>
   </g>
   <g id="matplotlib.axis_2">
    <g id="ytick_1">
     <g id="line2d_7">
      <path d="M 36.850394 141.812509 
L 235.275591 141.812509 
" clip-path="url(#p22bb1bf92a)" style="fill: none; stroke: #e4e4e4; stroke-width: 0.4; stroke-linecap: square"/>
     </g>
     <g id="line2d_8">
      <defs>
       <path id="m159ed3ff7b" d="M 0 0 
L 2.4 0 
" style="stroke: #1b1b1b; stroke-width: 0.6"/>
      </defs>
      <g>
       <use xlink:href="#m159ed3ff7b" x="36.850394" y="141.812509" style="fill: #1b1b1b; stroke: #1b1b1b; stroke-width: 0.6"/>
      </g>
     </g>
     <g id="text_8">
      <text style="font-size: 6.5px; font-family: 'Arial'; text-anchor: end; fill: #1b1b1b" x="33.350394" y="144.178598" transform="rotate(-0 33.350394 144.178598)">1.0</text>
     </g>
    </g>
    <g id="ytick_2">
     <g id="line2d_9">
      <path d="M 36.850394 117.744763 
L 235.275591 117.744763 
" clip-path="url(#p22bb1bf92a)" style="fill: none; stroke: #e4e4e4; stroke-width: 0.4; stroke-linecap: square"/>
     </g>
     <g id="line2d_10">
      <g>
       <use xlink:href="#m159ed3ff7b" x="36.850394" y="117.744763" style="fill: #1b1b1b; stroke: #1b1b1b; stroke-width: 0.6"/>
      </g>
     </g>
     <g id="text_9">
      <text style="font-size: 6.5px; font-family: 'Arial'; text-anchor: end; fill: #1b1b1b" x="33.350394" y="120.110852" transform="rotate(-0 33.350394 120.110852)">1.2</text>
     </g>
    </g>
    <g id="ytick_3">
     <g id="line2d_11">
      <path d="M 36.850394 93.677017 
L 235.275591 93.677017 
" clip-path="url(#p22bb1bf92a)" style="fill: none; stroke: #e4e4e4; stroke-width: 0.4; stroke-linecap: square"/>
     </g>
     <g id="line2d_12">
      <g>
       <use xlink:href="#m159ed3ff7b" x="36.850394" y="93.677017" style="fill: #1b1b1b; stroke: #1b1b1b; stroke-width: 0.6"/>
      </g>
     </g>
     <g id="text_10">
      <text style="font-size: 6.5px; font-family: 'Arial'; text-anchor: end; fill: #1b1b1b" x="33.350394" y="96.043106" transform="rotate(-0 33.350394 96.043106)">1.4</text>
     </g>
    </g>
    <g id="ytick_4">
     <g id="line2d_13">
      <path d="M 36.850394 69.609271 
L 235.275591 69.609271 
" clip-path="url(#p22bb1bf92a)" style="fill: none; stroke: #e4e4e4; stroke-width: 0.4; stroke-linecap: square"/>
     </g>
     <g id="line2d_14">
      <g>
       <use xlink:href="#m159ed3ff7b" x="36.850394" y="69.609271" style="fill: #1b1b1b; stroke: #1b1b1b; stroke-width: 0.6"/>
      </g>
     </g>
     <g id="text_11">
      <text style="font-size: 6.5px; font-family: 'Arial'; text-anchor: end; fill: #1b1b1b" x="33.350394" y="71.975359" transform="rotate(-0 33.350394 71.975359)">1.6</text>
     </g>
    </g>
    <g id="ytick_5">
     <g id="line2d_15">
      <path d="M 36.850394 45.541524 
L 235.275591 45.541524 
" clip-path="url(#p22bb1bf92a)" style="fill: none; stroke: #e4e4e4; stroke-width: 0.4; stroke-linecap: square"/>
     </g>
     <g id="line2d_16">
      <g>
       <use xlink:href="#m159ed3ff7b" x="36.850394" y="45.541524" style="fill: #1b1b1b; stroke: #1b1b1b; stroke-width: 0.6"/>
      </g>
     </g>
     <g id="text_12">
      <text style="font-size: 6.5px; font-family: 'Arial'; text-anchor: end; fill: #1b1b1b" x="33.350394" y="47.907613" transform="rotate(-0 33.350394 47.907613)">1.8</text>
     </g>
    </g>
    <g id="text_13">
     <text style="font-size: 7px; font-family: 'Arial'; text-anchor: middle; fill: #1b1b1b" x="20.842112" y="86.456693" transform="rotate(-90 20.842112 86.456693)">viscosity / viscosity at 15 min</text>
    </g>
   </g>
   <g id="line2d_17">
    <path d="M 36.850394 141.812509 
L 235.275591 141.812509 
" clip-path="url(#p22bb1bf92a)" style="fill: none; stroke: #e4e4e4; stroke-width: 0.6; stroke-linecap: square"/>
   </g>
   <g id="patch_4">
    <path d="M 36.850394 150.23622 
L 36.850394 22.677165 
" style="fill: none; stroke: #1b1b1b; stroke-width: 0.6; stroke-linejoin: miter; stroke-linecap: square"/>
   </g>
   <g id="patch_5">
    <path d="M 36.850394 150.23622 
L 235.275591 150.23622 
" style="fill: none; stroke: #1b1b1b; stroke-width: 0.6; stroke-linejoin: miter; stroke-linecap: square"/>
   </g>
   <g id="text_14">
    <text style="font-size: 5.2px; font-family: 'Arial'; text-anchor: middle; fill: #5a6480" x="94.900318" y="30.674763" transform="rotate(-0 94.900318 30.674763)">matched window</text>
   </g>
   <g id="line2d_18">
    <path d="M 47.404925 141.812509 
L 79.068521 127.655011 
L 142.395711 79.791779 
L 205.722902 29.804921 
" clip-path="url(#p22bb1bf92a)" style="fill: none; stroke: #eb6969; stroke-linecap: square"/>
   </g>
   <g id="text_15">
    <text style="font-weight: 700; font-size: 5.6px; font-family: 'Arial'; text-anchor: start; fill: #eb6969" x="209.944714" y="31.25414" transform="rotate(-0 209.944714 31.25414)">E5</text>
   </g>
   <g id="line2d_19">
    <path d="M 47.404925 141.812509 
L 79.068521 138.433448 
L 142.395711 130.367849 
L 205.722902 121.538141 
" clip-path="url(#p22bb1bf92a)" style="fill: none; stroke: #9daccb; stroke-linecap: square"/>
   </g>
   <g id="text_16">
    <text style="font-weight: 700; font-size: 5.6px; font-family: 'Arial'; text-anchor: start; fill: #9daccb" x="209.944714" y="122.98736" transform="rotate(-0 209.944714 122.98736)">E1</text>
   </g>
   <g id="line2d_20">
    <path d="M 47.404925 141.812509 
L 79.068521 145.8238 
L 110.732116 144.454091 
L 142.395711 142.008182 
" clip-path="url(#p22bb1bf92a)" style="fill: none; stroke: #5e7a52; stroke-linecap: square"/>
   </g>
   <g id="text_17">
    <text style="font-weight: 700; font-size: 5.6px; font-family: 'Arial'; text-anchor: start; fill: #5e7a52" x="146.617524" y="143.457401" transform="rotate(-0 146.617524 143.457401)">F1 repeat 1</text>
   </g>
   <g id="line2d_21">
    <path d="M 47.404925 141.812509 
L 79.068521 143.785275 
L 110.732116 141.060979 
L 142.395711 138.148801 
" clip-path="url(#p22bb1bf92a)" style="fill: none; stroke: #89aa7b; stroke-linecap: square"/>
   </g>
   <g id="text_18">
    <text style="font-weight: 700; font-size: 5.6px; font-family: 'Arial'; text-anchor: start; fill: #89aa7b" x="146.617524" y="139.59802" transform="rotate(-0 146.617524 139.59802)">F1 repeat 2</text>
   </g>
   <g id="PathCollection_1">
    <defs>
     <path id="m4c141abc44" d="M 0 1.658312 
C 0.43979 1.658312 0.861626 1.483582 1.172604 1.172604 
C 1.483582 0.861626 1.658312 0.43979 1.658312 0 
C 1.658312 -0.43979 1.483582 -0.861626 1.172604 -1.172604 
C 0.861626 -1.483582 0.43979 -1.658312 0 -1.658312 
C -0.43979 -1.658312 -0.861626 -1.483582 -1.172604 -1.172604 
C -1.483582 -0.861626 -1.658312 -0.43979 -1.658312 0 
C -1.658312 0.43979 -1.483582 0.861626 -1.172604 1.172604 
C -0.861626 1.483582 -0.43979 1.658312 0 1.658312 
z
" style="stroke: #eb6969; stroke-width: 0.8"/>
    </defs>
    <g clip-path="url(#p22bb1bf92a)">
     <use xlink:href="#m4c141abc44" x="47.404925" y="141.812509" style="fill: #ffffff; stroke: #eb6969; stroke-width: 0.8"/>
     <use xlink:href="#m4c141abc44" x="79.068521" y="127.655011" style="fill: #ffffff; stroke: #eb6969; stroke-width: 0.8"/>
     <use xlink:href="#m4c141abc44" x="142.395711" y="79.791779" style="fill: #ffffff; stroke: #eb6969; stroke-width: 0.8"/>
     <use xlink:href="#m4c141abc44" x="205.722902" y="29.804921" style="fill: #ffffff; stroke: #eb6969; stroke-width: 0.8"/>
    </g>
   </g>
   <g id="PathCollection_2">
    <defs>
     <path id="me573961ff4" d="M 0 1.658312 
C 0.43979 1.658312 0.861626 1.483582 1.172604 1.172604 
C 1.483582 0.861626 1.658312 0.43979 1.658312 0 
C 1.658312 -0.43979 1.483582 -0.861626 1.172604 -1.172604 
C 0.861626 -1.483582 0.43979 -1.658312 0 -1.658312 
C -0.43979 -1.658312 -0.861626 -1.483582 -1.172604 -1.172604 
C -1.483582 -0.861626 -1.658312 -0.43979 -1.658312 0 
C -1.658312 0.43979 -1.483582 0.861626 -1.172604 1.172604 
C -0.861626 1.483582 -0.43979 1.658312 0 1.658312 
z
" style="stroke: #9daccb; stroke-width: 0.8"/>
    </defs>
    <g clip-path="url(#p22bb1bf92a)">
     <use xlink:href="#me573961ff4" x="47.404925" y="141.812509" style="fill: #ffffff; stroke: #9daccb; stroke-width: 0.8"/>
     <use xlink:href="#me573961ff4" x="79.068521" y="138.433448" style="fill: #ffffff; stroke: #9daccb; stroke-width: 0.8"/>
     <use xlink:href="#me573961ff4" x="142.395711" y="130.367849" style="fill: #ffffff; stroke: #9daccb; stroke-width: 0.8"/>
     <use xlink:href="#me573961ff4" x="205.722902" y="121.538141" style="fill: #ffffff; stroke: #9daccb; stroke-width: 0.8"/>
    </g>
   </g>
   <g id="PathCollection_3">
    <defs>
     <path id="m4679cfe5e5" d="M 0 1.658312 
C 0.43979 1.658312 0.861626 1.483582 1.172604 1.172604 
C 1.483582 0.861626 1.658312 0.43979 1.658312 0 
C 1.658312 -0.43979 1.483582 -0.861626 1.172604 -1.172604 
C 0.861626 -1.483582 0.43979 -1.658312 0 -1.658312 
C -0.43979 -1.658312 -0.861626 -1.483582 -1.172604 -1.172604 
C -1.483582 -0.861626 -1.658312 -0.43979 -1.658312 0 
C -1.658312 0.43979 -1.483582 0.861626 -1.172604 1.172604 
C -0.861626 1.483582 -0.43979 1.658312 0 1.658312 
z
" style="stroke: #5e7a52; stroke-width: 0.8"/>
    </defs>
    <g clip-path="url(#p22bb1bf92a)">
     <use xlink:href="#m4679cfe5e5" x="47.404925" y="141.812509" style="fill: #ffffff; stroke: #5e7a52; stroke-width: 0.8"/>
     <use xlink:href="#m4679cfe5e5" x="79.068521" y="145.8238" style="fill: #ffffff; stroke: #5e7a52; stroke-width: 0.8"/>
     <use xlink:href="#m4679cfe5e5" x="110.732116" y="144.454091" style="fill: #ffffff; stroke: #5e7a52; stroke-width: 0.8"/>
     <use xlink:href="#m4679cfe5e5" x="142.395711" y="142.008182" style="fill: #ffffff; stroke: #5e7a52; stroke-width: 0.8"/>
    </g>
   </g>
   <g id="PathCollection_4">
    <defs>
     <path id="mb1ea3950fa" d="M 0 1.658312 
C 0.43979 1.658312 0.861626 1.483582 1.172604 1.172604 
C 1.483582 0.861626 1.658312 0.43979 1.658312 0 
C 1.658312 -0.43979 1.483582 -0.861626 1.172604 -1.172604 
C 0.861626 -1.483582 0.43979 -1.658312 0 -1.658312 
C -0.43979 -1.658312 -0.861626 -1.483582 -1.172604 -1.172604 
C -1.483582 -0.861626 -1.658312 -0.43979 -1.658312 0 
C -1.658312 0.43979 -1.483582 0.861626 -1.172604 1.172604 
C -0.861626 1.483582 -0.43979 1.658312 0 1.658312 
z
" style="stroke: #89aa7b; stroke-width: 0.8"/>
    </defs>
    <g clip-path="url(#p22bb1bf92a)">
     <use xlink:href="#mb1ea3950fa" x="47.404925" y="141.812509" style="fill: #ffffff; stroke: #89aa7b; stroke-width: 0.8"/>
     <use xlink:href="#mb1ea3950fa" x="79.068521" y="143.785275" style="fill: #ffffff; stroke: #89aa7b; stroke-width: 0.8"/>
     <use xlink:href="#mb1ea3950fa" x="110.732116" y="141.060979" style="fill: #ffffff; stroke: #89aa7b; stroke-width: 0.8"/>
     <use xlink:href="#mb1ea3950fa" x="142.395711" y="138.148801" style="fill: #ffffff; stroke: #89aa7b; stroke-width: 0.8"/>
    </g>
   </g>
  </g>
  <g id="axes_2">
   <g id="patch_6">
    <path d="M 283.464567 150.23622 
L 498.897638 150.23622 
L 498.897638 22.677165 
L 283.464567 22.677165 
z
" style="fill: #ffffff"/>
   </g>
   <g id="matplotlib.axis_3">
    <g id="xtick_7">
     <g id="line2d_22">
      <path d="M 297.363475 150.23622 
L 297.363475 22.677165 
" clip-path="url(#p53d84acc9d)" style="fill: none; stroke: #e4e4e4; stroke-width: 0.4; stroke-linecap: square"/>
     </g>
     <g id="line2d_23">
      <g>
       <use xlink:href="#m5e2c1c748d" x="297.363475" y="150.23622" style="fill: #1b1b1b; stroke: #1b1b1b; stroke-width: 0.6"/>
      </g>
     </g>
     <g id="text_19">
      <text style="font-size: 6.5px; font-family: 'Arial'; text-anchor: middle; fill: #1b1b1b" x="297.363475" y="158.468398" transform="rotate(-0 297.363475 158.468398)">0</text>
     </g>
    </g>
    <g id="xtick_8">
     <g id="line2d_24">
      <path d="M 332.110744 150.23622 
L 332.110744 22.677165 
" clip-path="url(#p53d84acc9d)" style="fill: none; stroke: #e4e4e4; stroke-width: 0.4; stroke-linecap: square"/>
     </g>
     <g id="line2d_25">
      <g>
       <use xlink:href="#m5e2c1c748d" x="332.110744" y="150.23622" style="fill: #1b1b1b; stroke: #1b1b1b; stroke-width: 0.6"/>
      </g>
     </g>
     <g id="text_20">
      <text style="font-size: 6.5px; font-family: 'Arial'; text-anchor: middle; fill: #1b1b1b" x="332.110744" y="158.468398" transform="rotate(-0 332.110744 158.468398)">10</text>
     </g>
    </g>
    <g id="xtick_9">
     <g id="line2d_26">
      <path d="M 366.858014 150.23622 
L 366.858014 22.677165 
" clip-path="url(#p53d84acc9d)" style="fill: none; stroke: #e4e4e4; stroke-width: 0.4; stroke-linecap: square"/>
     </g>
     <g id="line2d_27">
      <g>
       <use xlink:href="#m5e2c1c748d" x="366.858014" y="150.23622" style="fill: #1b1b1b; stroke: #1b1b1b; stroke-width: 0.6"/>
      </g>
     </g>
     <g id="text_21">
      <text style="font-size: 6.5px; font-family: 'Arial'; text-anchor: middle; fill: #1b1b1b" x="366.858014" y="158.468398" transform="rotate(-0 366.858014 158.468398)">20</text>
     </g>
    </g>
    <g id="xtick_10">
     <g id="line2d_28">
      <path d="M 401.605283 150.23622 
L 401.605283 22.677165 
" clip-path="url(#p53d84acc9d)" style="fill: none; stroke: #e4e4e4; stroke-width: 0.4; stroke-linecap: square"/>
     </g>
     <g id="line2d_29">
      <g>
       <use xlink:href="#m5e2c1c748d" x="401.605283" y="150.23622" style="fill: #1b1b1b; stroke: #1b1b1b; stroke-width: 0.6"/>
      </g>
     </g>
     <g id="text_22">
      <text style="font-size: 6.5px; font-family: 'Arial'; text-anchor: middle; fill: #1b1b1b" x="401.605283" y="158.468398" transform="rotate(-0 401.605283 158.468398)">30</text>
     </g>
    </g>
    <g id="xtick_11">
     <g id="line2d_30">
      <path d="M 436.352553 150.23622 
L 436.352553 22.677165 
" clip-path="url(#p53d84acc9d)" style="fill: none; stroke: #e4e4e4; stroke-width: 0.4; stroke-linecap: square"/>
     </g>
     <g id="line2d_31">
      <g>
       <use xlink:href="#m5e2c1c748d" x="436.352553" y="150.23622" style="fill: #1b1b1b; stroke: #1b1b1b; stroke-width: 0.6"/>
      </g>
     </g>
     <g id="text_23">
      <text style="font-size: 6.5px; font-family: 'Arial'; text-anchor: middle; fill: #1b1b1b" x="436.352553" y="158.468398" transform="rotate(-0 436.352553 158.468398)">40</text>
     </g>
    </g>
    <g id="xtick_12">
     <g id="line2d_32">
      <path d="M 471.099822 150.23622 
L 471.099822 22.677165 
" clip-path="url(#p53d84acc9d)" style="fill: none; stroke: #e4e4e4; stroke-width: 0.4; stroke-linecap: square"/>
     </g>
     <g id="line2d_33">
      <g>
       <use xlink:href="#m5e2c1c748d" x="471.099822" y="150.23622" style="fill: #1b1b1b; stroke: #1b1b1b; stroke-width: 0.6"/>
      </g>
     </g>
     <g id="text_24">
      <text style="font-size: 6.5px; font-family: 'Arial'; text-anchor: middle; fill: #1b1b1b" x="471.099822" y="158.468398" transform="rotate(-0 471.099822 158.468398)">50</text>
     </g>
    </g>
    <g id="text_25">
     <text style="font-size: 7px; font-family: 'Arial'; text-anchor: middle; fill: #1b1b1b" x="391.181102" y="166.93251" transform="rotate(-0 391.181102 166.93251)">viscosity change, 15–60 min  (%)</text>
    </g>
   </g>
   <g id="matplotlib.axis_4">
    <g id="ytick_6">
     <g id="line2d_34">
      <g>
       <use xlink:href="#m159ed3ff7b" x="283.464567" y="135.229273" style="fill: #1b1b1b; stroke: #1b1b1b; stroke-width: 0.6"/>
      </g>
     </g>
     <g id="text_26">
      <text style="font-size: 6px; font-family: 'Arial'; text-anchor: end; fill: #1b1b1b" x="279.964567" y="137.413355" transform="rotate(-0 279.964567 137.413355)">E5</text>
     </g>
    </g>
    <g id="ytick_7">
     <g id="line2d_35">
      <g>
       <use xlink:href="#m159ed3ff7b" x="283.464567" y="110.217693" style="fill: #1b1b1b; stroke: #1b1b1b; stroke-width: 0.6"/>
      </g>
     </g>
     <g id="text_27">
      <text style="font-size: 6px; font-family: 'Arial'; text-anchor: end; fill: #1b1b1b" x="279.964567" y="112.401775" transform="rotate(-0 279.964567 112.401775)">E1</text>
     </g>
    </g>
    <g id="ytick_8">
     <g id="line2d_36">
      <g>
       <use xlink:href="#m159ed3ff7b" x="283.464567" y="85.206114" style="fill: #1b1b1b; stroke: #1b1b1b; stroke-width: 0.6"/>
      </g>
     </g>
     <g id="text_28">
      <text style="font-size: 6px; font-family: 'Arial'; text-anchor: end; fill: #1b1b1b" x="279.964567" y="87.390196" transform="rotate(-0 279.964567 87.390196)">F1 repeat 1</text>
     </g>
    </g>
    <g id="ytick_9">
     <g id="line2d_37">
      <g>
       <use xlink:href="#m159ed3ff7b" x="283.464567" y="60.194535" style="fill: #1b1b1b; stroke: #1b1b1b; stroke-width: 0.6"/>
      </g>
     </g>
     <g id="text_29">
      <text style="font-size: 6px; font-family: 'Arial'; text-anchor: end; fill: #1b1b1b" x="279.964567" y="62.378617" transform="rotate(-0 279.964567 62.378617)">F1 repeat 2</text>
     </g>
    </g>
   </g>
   <g id="patch_7">
    <path d="M 283.464567 150.23622 
L 283.464567 22.677165 
" style="fill: none; stroke: #1b1b1b; stroke-width: 0.6; stroke-linejoin: miter; stroke-linecap: square"/>
   </g>
   <g id="patch_8">
    <path d="M 283.464567 150.23622 
L 498.897638 150.23622 
" style="fill: none; stroke: #1b1b1b; stroke-width: 0.6; stroke-linejoin: miter; stroke-linecap: square"/>
   </g>
   <g id="patch_9">
    <path d="M 297.363475 142.982862 
L 476.445556 142.982862 
L 476.445556 127.475683 
L 297.363475 127.475683 
z
" clip-path="url(#p53d84acc9d)" style="fill: #eb6969"/>
   </g>
   <g id="patch_10">
    <path d="M 297.363475 117.971283 
L 330.409417 117.971283 
L 330.409417 102.464104 
L 297.363475 102.464104 
z
" clip-path="url(#p53d84acc9d)" style="fill: #9daccb"/>
   </g>
   <g id="patch_11">
    <path d="M 297.363475 92.959704 
L 296.798478 92.959704 
L 296.798478 77.452524 
L 297.363475 77.452524 
z
" clip-path="url(#p53d84acc9d)" style="fill: #5e7a52"/>
   </g>
   <g id="patch_12">
    <path d="M 297.363475 67.948124 
L 307.942269 67.948124 
L 307.942269 52.440945 
L 297.363475 52.440945 
z
" clip-path="url(#p53d84acc9d)" style="fill: #89aa7b"/>
   </g>
   <g id="text_30">
    <text style="font-size: 5.4px; font-family: 'Arial'; text-anchor: start; fill: #eb6969" x="328.59004" y="32.078332" transform="rotate(-0 328.59004 32.078332)">proportional-dilution null 7.79%</text>
   </g>
   <g id="text_31">
    <text style="font-size: 5px; font-family: 'Arial'; text-anchor: start; fill: #6b6f76" x="328.59004" y="43.480143" transform="rotate(-0 328.59004 43.480143)">= E1 9.51% × 0.819 reactive-core fraction</text>
   </g>
   <g id="text_32">
    <text style="font-size: 5.4px; font-family: 'Arial'; fill: #1b1b1b" transform="translate(380.756922 65.145772)">F1 mean |drift| 1.60%</text>
    <text style="font-size: 5.4px; font-family: 'Arial'; fill: #1b1b1b" transform="translate(380.756922 73.440256)">falls below the null, so</text>
    <text style="font-size: 5.4px; font-family: 'Arial'; fill: #1b1b1b" transform="translate(380.756922 81.361381)">dilution alone does not explain</text>
    <text style="font-size: 5.4px; font-family: 'Arial'; fill: #1b1b1b" transform="translate(380.756922 89.974803)">the stabilization.</text>
   </g>
   <g id="line2d_38">
    <path d="M 324.420368 150.23622 
L 324.420368 22.677165 
" clip-path="url(#p53d84acc9d)" style="fill: none; stroke-dasharray: 2.08,1.28; stroke-dashoffset: 0; stroke: #eb6969; stroke-width: 0.8"/>
   </g>
   <g id="text_33">
    <g id="patch_13">
     <path d="M 479.248283 138.529007 
L 502.854908 138.529007 
L 502.854908 131.929538 
L 479.248283 131.929538 
z
" style="fill: #ffffff"/>
    </g>
    <text style="font-weight: 700; font-size: 5.6px; font-family: 'Arial'; text-anchor: start; fill: #1b1b1b" x="479.920283" y="136.678492" transform="rotate(-0 479.920283 136.678492)">+51.54%</text>
   </g>
   <g id="text_34">
    <g id="patch_14">
     <path d="M 333.212144 113.517428 
L 353.704644 113.517428 
L 353.704644 106.917959 
L 333.212144 106.917959 
z
" style="fill: #ffffff"/>
    </g>
    <text style="font-weight: 700; font-size: 5.6px; font-family: 'Arial'; text-anchor: start; fill: #1b1b1b" x="333.884144" y="111.666912" transform="rotate(-0 333.884144 111.666912)">+9.51%</text>
   </g>
   <g id="text_35">
    <g id="patch_15">
     <path d="M 300.166202 88.505848 
L 319.252577 88.505848 
L 319.252577 81.90638 
L 300.166202 81.90638 
z
" style="fill: #ffffff"/>
    </g>
    <text style="font-weight: 700; font-size: 5.6px; font-family: 'Arial'; text-anchor: start; fill: #1b1b1b" x="300.838202" y="86.655333" transform="rotate(-0 300.838202 86.655333)">-0.16%</text>
   </g>
   <g id="text_36">
    <g id="patch_16">
     <path d="M 310.744996 63.494269 
L 331.237496 63.494269 
L 331.237496 56.8948 
L 310.744996 56.8948 
z
" style="fill: #ffffff"/>
    </g>
    <text style="font-weight: 700; font-size: 5.6px; font-family: 'Arial'; text-anchor: start; fill: #1b1b1b" x="311.416996" y="61.643753" transform="rotate(-0 311.416996 61.643753)">+3.04%</text>
   </g>
  </g>
  <g id="text_37">
   <text style="font-weight: 700; font-size: 9px; font-family: 'Arial'; text-anchor: start; fill: #1b1b1b" x="8.503937" y="12.221537" transform="rotate(-0 8.503937 12.221537)">a</text>
  </g>
  <g id="text_38">
   <text style="font-weight: 700; font-size: 9px; font-family: 'Arial'; text-anchor: start; fill: #1b1b1b" x="255.11811" y="12.221537" transform="rotate(-0 255.11811 12.221537)">b</text>
  </g>
 </g>
 <defs>
  <clipPath id="p22bb1bf92a">
   <rect x="36.850394" y="22.677165" width="198.425197" height="127.559055"/>
  </clipPath>
  <clipPath id="p53d84acc9d">
   <rect x="283.464567" y="22.677165" width="215.433071" height="127.559055"/>
  </clipPath>
 </defs>
</svg>
